<svg id="Layer_1" data-name="Layer 1" xmlns="http://www.w3.org/2000/svg" viewBox="0 0 140 55"><defs><style>.cls-1{fill:#e13c30;}.cls-2{fill:#153e35;}.cls-3{fill:#ef7e8b;}</style></defs><path class="cls-1" d="M54.91,36.53c3.25,0,5.65-1.78,5.65-4.55,0-3-2.43-3.73-4.53-4.33s-2.88-1-2.88-2c0-.72.6-1.35,1.78-1.35a2,2,0,0,1,2,2h3.41c0-2.8-2.26-4.63-5.37-4.63S49.63,23.45,49.63,26s2,3.46,4.33,4.18c2.1.64,3.15.82,3.15,1.92,0,.9-.76,1.63-2,1.63a2.19,2.19,0,0,1-2.25-2.39H49.45C49.35,34.73,52.08,36.53,54.91,36.53Z"/><path class="cls-1" d="M99.09,33V31.19a5.15,5.15,0,1,0-10.3,0,5,5,0,0,0,4.83,5.22,3.58,3.58,0,0,0,2.94-1.29,2,2,0,0,0,2.19,1.29A4.1,4.1,0,0,0,100,36.2V34C99.33,34,99.09,33.76,99.09,33ZM94,33.64a2.29,2.29,0,0,1-2.19-2.43A2.32,2.32,0,0,1,94,28.73a2.35,2.35,0,0,1,2.19,2.48A2.32,2.32,0,0,1,94,33.64Z"/><polygon class="cls-1" points="59.73 41.55 59.73 39.04 49.95 39.04 49.95 41.83 56.11 41.83 49.75 50.66 49.75 53.18 59.9 53.18 59.9 50.4 53.37 50.4 59.73 41.55"/><path class="cls-1" d="M76.54,42.9a5.24,5.24,0,1,0,5.07,5.26A5.1,5.1,0,0,0,76.54,42.9Zm0,7.74a2.25,2.25,0,0,1-2.1-2.46,2.14,2.14,0,1,1,4.2,0A2.25,2.25,0,0,1,76.54,50.64Z"/><path class="cls-1" d="M65.34,42.9a5.24,5.24,0,1,0,5.06,5.26A5.1,5.1,0,0,0,65.34,42.9Zm0,7.74a2.25,2.25,0,0,1-2.1-2.46,2.13,2.13,0,1,1,4.19,0A2.25,2.25,0,0,1,65.34,50.64Z"/><path class="cls-1" d="M73,30.38V36.2h3V30.44a4.55,4.55,0,0,0-9.09,0V36.2h3V30.38a1.6,1.6,0,0,1,3.19,0Z"/><path class="cls-1" d="M82.42,25.93a5.09,5.09,0,0,0-5.15,5.26,5,5,0,0,0,4.82,5.22,4.27,4.27,0,0,0,2.52-.79c0,1.15-.44,2.48-2.24,2.48-.61,0-1.58-.29-1.79-1.06H77.44c.29,2.26,2.3,3.84,4.93,3.84,3.2,0,5.19-2.07,5.19-5.4V31.19A5.09,5.09,0,0,0,82.42,25.93Zm0,7.71a2.3,2.3,0,0,1-2.19-2.43,2.33,2.33,0,0,1,2.19-2.48,2.36,2.36,0,0,1,2.2,2.48A2.33,2.33,0,0,1,82.42,33.64Z"/><path class="cls-1" d="M106.2,25.93a5.09,5.09,0,0,0-5.14,5.26v9.53h3V35.64a4.22,4.22,0,0,0,2.5.77,5,5,0,0,0,4.83-5.22A5.1,5.1,0,0,0,106.2,25.93Zm0,7.71A2.32,2.32,0,0,1,104,31.21a2.35,2.35,0,0,1,2.19-2.48,2.32,2.32,0,0,1,2.19,2.48A2.29,2.29,0,0,1,106.2,33.64Z"/><path class="cls-1" d="M117.5,25.93a5.24,5.24,0,1,0,5.06,5.26A5.1,5.1,0,0,0,117.5,25.93Zm0,7.74a2.25,2.25,0,0,1-2.1-2.47,2.13,2.13,0,1,1,4.19,0A2.25,2.25,0,0,1,117.5,33.67Z"/><rect class="cls-1" x="62.05" y="26.17" width="2.95" height="10.04"/><path class="cls-1" d="M63.52,25.2a1.77,1.77,0,1,0-1.75-1.77A1.76,1.76,0,0,0,63.52,25.2Z"/><path class="cls-1" d="M123.87,30.44V36.2h2.95V30.38c0-1.07.93-1.9,2.59-1.48V26a7.73,7.73,0,0,0-1-.06A4.24,4.24,0,0,0,123.87,30.44Z"/><path class="cls-1" d="M140,31a4.8,4.8,0,0,0-5-5.1,5.24,5.24,0,0,0,0,10.48,4.8,4.8,0,0,0,4.87-3.56H137a2.08,2.08,0,0,1-2.05,1.24A2.29,2.29,0,0,1,132.62,32h7.32A7.66,7.66,0,0,0,140,31Zm-7.25-1.12A2.19,2.19,0,0,1,135,28.2a2.17,2.17,0,0,1,2.19,1.71Z"/><path class="cls-2" d="M58.87,15.44a2.76,2.76,0,0,1,2.76-2.9,2.19,2.19,0,0,1,1.67.74.15.15,0,0,0,.19,0l.67-.58a.17.17,0,0,1,.18-.05l.22.1a.16.16,0,0,1,.09.16l-.14.91V16.6a.45.45,0,0,0,.45.48c.13,0,.22.1.22.23v.14a.21.21,0,0,1-.16.2l-.85.22-.72.45a.24.24,0,0,1-.27,0l-.07,0a.18.18,0,0,1-.06-.19l0-.24c0-.13-.08-.13-.13-.07a1.9,1.9,0,0,1-1.53.59A2.68,2.68,0,0,1,58.87,15.44Zm4.24,0c0-.79-.33-2-1.37-2s-1.4,1.22-1.4,2,.26,2,1.4,2S63.11,16.27,63.11,15.44Z"/><path class="cls-2" d="M65.61,18v-.15a.23.23,0,0,1,.22-.23.43.43,0,0,0,.44-.47V14.37a.45.45,0,0,0-.44-.48c-.13,0-.22-.1-.22-.23v-.14a.2.2,0,0,1,.15-.2l.86-.22.72-.45a.22.22,0,0,1,.27,0l.06,0c.07,0,.08.1.07.19l0,.28a.08.08,0,0,0,.15.06,2.26,2.26,0,0,1,1.69-.71,1.76,1.76,0,0,1,1.95,1.9v2.67a.44.44,0,0,0,.45.47.22.22,0,0,1,.22.23V18a.22.22,0,0,1-.22.22H69.58a.22.22,0,0,1-.22-.22v-.15a.23.23,0,0,1,.22-.23.44.44,0,0,0,.45-.47V14.52a1,1,0,0,0-1-1.07,1.29,1.29,0,0,0-1.24,1.46v2.2a.44.44,0,0,0,.44.47.23.23,0,0,1,.23.23V18a.22.22,0,0,1-.23.22H65.83A.22.22,0,0,1,65.61,18Z"/><path class="cls-2" d="M72.38,15.44a2.75,2.75,0,0,1,2.75-2.9,2.12,2.12,0,0,1,1.28.4.09.09,0,0,0,.14-.08v-.92a.45.45,0,0,0-.44-.49c-.14,0-.22-.1-.22-.22v-.14a.19.19,0,0,1,.15-.2l1-.22.72-.45a.26.26,0,0,1,.27,0l.06,0c.07,0,.08.1.07.19l-.11.84V16.6a.45.45,0,0,0,.44.48c.13,0,.22.1.22.23v.14a.2.2,0,0,1-.15.2l-.86.22-.72.45a.24.24,0,0,1-.27,0l-.06,0a.17.17,0,0,1-.07-.19l0-.24c0-.14-.07-.13-.13-.08a2.07,2.07,0,0,1-1.54.6A2.68,2.68,0,0,1,72.38,15.44Zm4.24,0c0-.79-.33-2-1.38-2s-1.4,1.22-1.4,2,.27,2,1.4,2S76.62,16.27,76.62,15.44Z"/><path class="cls-2" d="M78.91,15.44a2.76,2.76,0,0,1,2.76-2.9,2.19,2.19,0,0,1,1.67.74.15.15,0,0,0,.19,0l.67-.58a.17.17,0,0,1,.18-.05l.22.1a.16.16,0,0,1,.09.16l-.14.91V16.6a.45.45,0,0,0,.45.48c.13,0,.22.1.22.23v.14a.2.2,0,0,1-.16.2l-.85.22-.72.45a.24.24,0,0,1-.27,0l-.07,0a.18.18,0,0,1-.06-.19l0-.24c0-.13-.08-.13-.13-.07a1.9,1.9,0,0,1-1.53.59A2.68,2.68,0,0,1,78.91,15.44Zm4.24,0c0-.79-.33-2-1.37-2s-1.4,1.22-1.4,2,.27,2,1.4,2S83.15,16.27,83.15,15.44Z"/><path class="cls-2" d="M87.78,13.76v3.35a.44.44,0,0,0,.45.47.22.22,0,0,1,.22.23V18a.22.22,0,0,1-.22.22H85.87a.22.22,0,0,1-.22-.22v-.15a.23.23,0,0,1,.22-.23.44.44,0,0,0,.45-.47V14.39a.46.46,0,0,0-.45-.49c-.13,0-.22-.1-.22-.22v-.15a.19.19,0,0,1,.15-.2l1-.22.72-.45a.24.24,0,0,1,.27,0l.07,0a.18.18,0,0,1,.06.19ZM86.14,11a.91.91,0,0,0,.91.91A.92.92,0,0,0,88,11a.93.93,0,0,0-.93-.93A.92.92,0,0,0,86.14,11Z"/><path class="cls-2" d="M49.75,18v-.29a.24.24,0,0,1,.24-.25c.3-.05.49-.19.5-.5l.25-5.37c0-.23-.06-.32-.29-.37s-.26-.13-.26-.28v-.23c0-.19.13-.27.33-.25h1.76c.17,0,.26,0,.3.18l1.47,4.84c0,.12.14.12.19,0l1.59-4.84a.24.24,0,0,1,.3-.18h1.71c.2,0,.33.06.33.25v.23c0,.15-.06.23-.26.28s-.3.14-.29.37l.27,5.37c0,.31.2.46.5.5s.25.1.25.23V18c0,.13-.06.23-.2.23H55.83a.26.26,0,0,1-.26-.23v-.31a.23.23,0,0,1,.24-.23.5.5,0,0,0,.5-.51l-.15-4.08c0-.13-.14-.16-.18,0L54.24,18a.27.27,0,0,1-.25.17h-.35a.27.27,0,0,1-.25-.17l-1.62-5.28c0-.12-.19-.12-.19,0l-.14,4.15a.43.43,0,0,0,.4.51.24.24,0,0,1,.24.25V18a.26.26,0,0,1-.26.23H50A.26.26,0,0,1,49.75,18Z"/><path class="cls-3" d="M2.16,30.89l-1.51,1a1,1,0,0,0-.41,1.21l.61,1.7A1.23,1.23,0,0,0,2,35.65h4.3V32.29Z"/><path class="cls-3" d="M8.29,13.33,6.5,13a.81.81,0,0,0-1,.64l-.48,2.53a.8.8,0,0,0,.27.77l4.2,3.61,1.17-2.71Z"/><path class="cls-2" d="M12.84,11.48,11,9.2A3.62,3.62,0,0,0,7.68,7.86l-.53.08a9.77,9.77,0,0,0-.73-1.55C4.8,3.73,2.91,4.24,2.91,4.24a16.21,16.21,0,0,1,3.28,6.29,21.32,21.32,0,0,1-.25,9.91H5.33A4.22,4.22,0,0,0,1.7,22.53L0,25.44a6.74,6.74,0,0,0,5.3-2.57c-.44,1.51-1,3.06-1.59,4.66-1.92,5-3,9.63-2.83,14.22a18.24,18.24,0,0,0,2.51,9A6.15,6.15,0,0,0,6,53.34a.15.15,0,0,0,.17-.23A17.68,17.68,0,0,1,2.39,41.86h0A5.29,5.29,0,0,0,7,44.49L5.63,42.21a3.32,3.32,0,0,0-2.84-1.64H2.41A40.46,40.46,0,0,1,5.17,28.46c.23-.63.47-1.29.71-2a4.88,4.88,0,0,0,2.41,4V28a3,3,0,0,0-1.51-2.63l-.43-.26c1.5-4.49,2.79-9.86,1.4-15.28L7.69,9.6A5.8,5.8,0,0,0,12.84,11.48Z"/><path class="cls-3" d="M9.61,16.13a.52.52,0,0,0,.43.23h0a.5.5,0,0,0,.43-.73L9.58,14a1.07,1.07,0,0,0-.72-.54L6.5,13,6.36,16.6h0A2.26,2.26,0,0,1,8,15.86h.88Z"/><path class="cls-3" d="M5.73,32.66,5.43,32a2,2,0,0,0-1.51-1.2l-1.69-.3a.5.5,0,0,0-.58.4l-.18,1h1.2a2.11,2.11,0,0,1,1.3.45l.41.31Z"/><path class="cls-3" d="M15.72,47.35,15,46.83a1.14,1.14,0,0,0-.93-.17l-1.49.41a.44.44,0,0,0-.33.38.42.42,0,0,0,.41.43h1.22a.47.47,0,0,1,.4.27.45.45,0,0,1-.17.58l-1.59,1.09a1.63,1.63,0,0,1-.86.28l-1,0a.45.45,0,0,0-.43.43h0a.44.44,0,0,0,.44.47h1a1.8,1.8,0,0,0,.69-.13l1-.37h0a1.38,1.38,0,0,1-.78.79,4.12,4.12,0,0,1-.47.13l-1.28.28a.35.35,0,0,0-.24.51L11,53a.71.71,0,0,0,.64.39h1.22a3.58,3.58,0,0,0,2-.59L16,52a6.59,6.59,0,0,0,1.68-1.61l.77-1.07h0Z"/><path class="cls-1" d="M43.12,5.68l-.55.51A11,11,0,0,0,40.39,9l-3.55,6.46a3.05,3.05,0,0,1-1.37,1.29l-4.66,2.21V14.85h1.54L32,14.33a2.07,2.07,0,0,0-1.67-.85h-1a3.31,3.31,0,0,0-2.68,1.37l-2.47,3.42-4.93,2.36a3.05,3.05,0,0,1-2.64,0L10.7,17.82v0L9.52,20.51l1.31,1.13a3,3,0,0,1,1,2.27v2.4a11.85,11.85,0,0,1,5-1.1h4l-.73,1.69-.43,1a3.24,3.24,0,0,1-1.57,1.63L12.94,32a3.18,3.18,0,0,1-1.32.3H6.32v3.36h6.19l-.79,1.19h5.57a1.92,1.92,0,0,1,1.89,2.25L18.51,43A3,3,0,0,1,18,44.22l-2.26,3.13,2.7,1.95,4.7-6.52.35,2.28.52-.8a9.36,9.36,0,0,0,1.31-7.1l-.57-2.59a6.09,6.09,0,0,0,4.9-3.14L33.16,25a6.47,6.47,0,0,1,2.72-2.64,4.3,4.3,0,0,1,3.95,0l1.27.65-.66-3.14,1.29.64-.16-3.27a5.75,5.75,0,0,1,.29-2.06L42.28,14,43,11.74a7.11,7.11,0,0,1,1.35-2.36l1.08-1.24Z"/><path class="cls-3" d="M27.65,17.79a.85.85,0,0,1-.84-1,.87.87,0,0,1,.88-.69h0a.36.36,0,0,1,.36.35v1.34Z"/><path class="cls-3" d="M32.49,19.56a.65.65,0,0,1-.41-.25.11.11,0,0,1,.09-.17h1.21c0-.69-.22-.91-.78-1.47l.15-.27a.12.12,0,0,0,0-.16L32.19,17a.78.78,0,0,1-.41-.68v-.71a.64.64,0,0,0-.12-.38l-.23-.33h-.94A1.38,1.38,0,0,0,29.1,16.1a1.33,1.33,0,0,0,.39,1h0l.59.59a1.49,1.49,0,0,1,.44,1.05v2.07l1.07.3a1.37,1.37,0,0,0,1.79-1.44Zm-1.68-2.71a.34.34,0,1,1,0-.67.34.34,0,1,1,0,.67Z"/><path class="cls-3" d="M46.06.71a.41.41,0,0,0-.53.26l-1,3a3.44,3.44,0,0,1-.56,1l-.39.47L43,4.84l.09-.9a.53.53,0,0,0-.39-.56l-.55,1.34a1.47,1.47,0,0,0,0,1.09L42.58,7l-.32,1.49a1.2,1.2,0,0,0,.45,1.2h0a1.2,1.2,0,0,0,1.63-.18l1.74-2a3.32,3.32,0,0,1,1.37-1l2.37-.86a.43.43,0,0,0,.29-.47.42.42,0,0,0-.56-.32l-2.38.87A.13.13,0,0,1,47,5.47L49.5,3.61a.42.42,0,0,0,.14-.54A.42.42,0,0,0,49,2.93l-2.6,2a.13.13,0,0,1-.19-.18l2.06-2.83a.44.44,0,0,0,0-.56.42.42,0,0,0-.64.05l-2,2.81a.13.13,0,0,1-.23-.12l1-2.82A.43.43,0,0,0,46.06.71Z"/><path class="cls-1" d="M30.81,16.13a.39.39,0,0,0,0,.77.39.39,0,1,0,0-.77Z"/></svg>